# xmcd CD database file
#
# Track frame offsets:
#	150
#	19844
#	40168
#	59176
#	78623
#	97400
#	117257
#	137364
#
# Disc length: 2145 seconds
#
# Revision: 0
# Processed by: cddbd v1.5.2PL0 Copyright (c) Steve Scherf et al.
# Submitted via: NeoAudio 9.9.9
#
DISCID=70085f08
DTITLE=Luis Centeno Y Su Orquesta Melaza - Guaguanco de Caserio
DYEAR=2006
DGENRE=Salsa
TTITLE0=Guaguanco de Caserio
TTITLE1=Fruto Que Da
TTITLE2=Salsa Violenta
TTITLE3=Puerto Rico
TTITLE4=De Buenas a Primera
TTITLE5=Mientas
TTITLE6=Mujer Caleña
TTITLE7=Madre Matilde
EXTD=YEAR: 2006
EXTT0=
EXTT1=
EXTT2=
EXTT3=
EXTT4=
EXTT5=
EXTT6=
EXTT7=
PLAYORDER=
